<svg id="Layer_1" enable-background="new 0 0 48 48" height="512" viewBox="0 0 48 48" width="512" xmlns="http://www.w3.org/2000/svg"><path d="m14.3 16.2h-3.3c-1.1 0-1.9-.9-1.9-1.9v-3.4c-.1-1 .7-1.9 1.8-1.9h3.3c1.1 0 1.9.9 1.9 1.9v3.4c.1 1-.8 1.9-1.8 1.9zm-.1-5.3-3.3.1.1 3.3 3.2-.1zm.1 3.3c-.1 0-.1 0 0 0zm24.7-1.3c0-.6-.4-1-1-1h-18c-.6 0-1 .4-1 1s.4 1 1 1h18c.6 0 1-.5 1-1zm-24.7 14.7h-3.3c-1.1 0-1.9-.9-1.9-1.9v-3.3c0-1.1.9-1.9 1.9-1.9h3.3c1.1 0 1.9.9 1.9 1.9v3.3c0 1-.9 1.9-1.9 1.9zm-.1-5.3-3.3.1.1 3.3 3.2-.1zm.1 3.3c-.1 0-.1 0 0 0zm24.7-1.3c0-.6-.4-1-1-1h-18c-.6 0-1 .4-1 1s.4 1 1 1h18c.6 0 1-.5 1-1zm-24.7 14.7h-3.3c-1.2 0-2-.9-2-1.9v-3.4c0-1.1.9-1.9 1.9-1.9h3.3c1.1 0 1.9.9 1.9 1.9v3.4c.1 1-.8 1.9-1.8 1.9zm-.1-5.3-3.3.1.1 3.3 3.2-.1zm.1 3.3c-.1 0-.1 0 0 0zm24.7-1.3c0-.6-.4-1-1-1h-18c-.6 0-1 .4-1 1s.4 1 1 1h18c.6 0 1-.5 1-1z"/></svg>